<?xml version="1.0" ?>
<!-- Uploaded to: SVG Repo, www.svgrepo.com, Generator: SVG Repo Mixer Tools -->
<svg width="800px" height="800px" viewBox="0 0 512 512" id="Layer_1" version="1.1" xml:space="preserve" xmlns="http://www.w3.org/2000/svg" xmlns:xlink="http://www.w3.org/1999/xlink">
<g id="_x30_25_E-Commerce_Optimization">
<g>
<g>
<g>
<g>
<path d="M399.008,472.459c0,19.638-15.898,35.537-35.536,35.537s-35.537-15.899-35.537-35.537       c0-19.637,15.899-35.537,35.537-35.537S399.008,452.822,399.008,472.459z" style="fill:#FC8A8A;"/>
</g>
<g>
<path d="M210.611,472.459c0,19.638-15.898,35.537-35.536,35.537s-35.537-15.899-35.537-35.537       c0-19.637,15.899-35.537,35.537-35.537S210.611,452.822,210.611,472.459z" style="fill:#FC8A8A;"/>
</g>
</g>
<g>
<g>
<path d="M399.005,472.478c0,19.639-15.88,35.519-35.52,35.519c-14.479,0-26.959-8.64-32.479-21.04       c4.44,2,9.36,3.12,14.52,3.12c19.639,0,35.559-15.92,35.559-35.559c0-5.16-1.12-10.08-3.12-14.52       C390.366,445.518,399.005,457.997,399.005,472.478z" style="fill:#F96363;"/>
</g>
<g>
<path d="M210.607,472.478c0,19.639-15.88,35.519-35.519,35.519c-14.48,0-26.96-8.64-32.48-21.04       c4.44,2,9.36,3.12,14.52,3.12c19.639,0,35.559-15.92,35.559-35.559c0-5.16-1.12-10.08-3.12-14.52       C201.968,445.518,210.607,457.997,210.607,472.478z" style="fill:#F96363;"/>
</g>
</g>
<g>
<path d="M507.416,141.603L461.017,337.68c-2.32,9.72-10.96,16.56-20.92,16.56H137.022      c-11.44,0-21.72,4.6-29.2,12.08c-2.601,2.6-4.8,5.48-6.64,8.72l43.439-259.876h341.875      C500.336,115.163,510.576,128.082,507.416,141.603z" style="fill:#D3D8D9;"/>
</g>
<g>
<path d="M195.248,115.163L155.289,354.24h-18.28c-11.44,0-21.719,4.6-29.2,12.08      c-2.6,2.6-4.8,5.48-6.64,8.72l43.439-259.876L195.248,115.163L195.248,115.163z" style="fill:#EDEDED;"/>
</g>
<g>
<path d="M507.416,141.603l-46.4,196.077c-2.319,9.72-10.96,16.56-20.92,16.56h-50.639      c9.96,0,18.599-6.84,20.92-16.56l46.399-196.077c3.16-13.521-7.079-26.44-20.92-26.44h50.64      C500.336,115.163,510.576,128.082,507.416,141.603z" style="fill:#A8B1B3;"/>
</g>
</g>
<g>
<g>
<ellipse cx="315.595" cy="178.716" rx="137.359" ry="137.358" style="fill:#7AD1F9;" transform="matrix(0.1602 -0.9871 0.9871 0.1602 88.6292 461.6057)"/>
<path d="M315.558,320.035c-77.944,0-141.357-63.413-141.357-141.357S237.614,37.321,315.558,37.321      s141.357,63.413,141.357,141.357S393.502,320.035,315.558,320.035z M315.558,45.32c-73.534,0-133.357,59.823-133.357,133.357      s59.823,133.357,133.357,133.357s133.357-59.823,133.357-133.357S389.092,45.32,315.558,45.32z" style="fill:#333333;"/>
</g>
<g>
<ellipse cx="315.595" cy="178.716" rx="137.359" ry="137.358" style="fill:#7AD1F9;" transform="matrix(0.1602 -0.9871 0.9871 0.1602 88.6292 461.6057)"/>
</g>
<g>
<path d="M352.086,98.203c0,64.599-52.4,116.998-116.998,116.998c-19.88,0-38.559-4.96-54.959-13.679      c-1.28-7.44-1.92-15.08-1.92-22.84c0-75.839,61.519-137.358,137.357-137.358c7.761,0,15.36,0.64,22.8,1.92      C347.126,59.643,352.086,78.323,352.086,98.203z" style="fill:#A6E1FB;"/>
</g>
<g>
<path d="M452.924,178.682c0,75.839-61.52,137.358-137.358,137.358      c-48.199,0-90.638-24.839-115.117-62.438c21.559,14.079,47.279,22.24,74.919,22.24c75.839,0,137.357-61.519,137.357-137.358      c0-27.64-8.199-53.36-22.24-74.919C428.085,88.083,452.924,130.483,452.924,178.682z" style="fill:#4CC3F7;"/>
</g>
<g>
<ellipse cx="315.559" cy="178.677" rx="74.305" ry="137.357" style="fill:#A6E1FB;"/>
</g>
<g>
<path d="M352.086,98.203c0,61.639-47.719,112.159-108.199,116.638c-1.72-11.52-2.64-23.64-2.64-36.16      c0-75.839,33.28-137.358,74.318-137.358c9.24,0,18.04,3.12,26.2,8.8C348.405,64.803,352.086,81.043,352.086,98.203z" style="fill:#D3F0FD;"/>
</g>
<g>
<path d="M386.565,219.081c-9.319,56.119-37.559,96.958-70.999,96.958      c-20.679,0-39.359-15.599-52.839-40.799c4.16,0.4,8.4,0.6,12.64,0.6C321.086,275.84,361.605,253.481,386.565,219.081z" style="fill:#7AD1F9;"/>
</g>
<path d="M506.436,120.827c-4.84-6.16-12.119-9.681-19.92-9.681h-46.807     C415.708,67.2,369.059,37.32,315.557,37.32S215.406,67.2,191.405,111.146H149.34l10.855-64.951     c1.926-11.523-1.301-23.246-8.848-32.16c-7.551-8.918-18.582-14.031-30.265-14.031H56.343c-2.211,0-4,1.789-4,4s1.789,4,4,4     h64.741c9.328,0,18.133,4.082,24.16,11.199c6.023,7.117,8.601,16.472,7.062,25.671L97.338,373.777     c-3.596,6.482-5.656,13.897-5.656,21.805c0,25,20.36,45.359,45.36,45.359h14.263c-9.555,7.223-15.768,18.643-15.768,31.517     c0,21.8,17.738,39.538,39.538,39.538s39.535-17.738,39.535-39.538c0-12.874-6.212-24.295-15.765-31.517h140.856     c-9.555,7.223-15.768,18.643-15.768,31.517c0,21.8,17.738,39.538,39.538,39.538s39.535-17.738,39.535-39.538     c0-21.801-17.734-39.535-39.535-39.535c-0.117,0-226.429,0.018-226.429,0.018c-20.6,0-37.36-16.76-37.36-37.359     c0-6.985,1.963-13.5,5.312-19.093c0.589-0.987,1.223-1.929,1.884-2.845c0.329-0.45,0.653-0.903,1.001-1.338     c0.537-0.677,1.124-1.318,1.711-1.959c6.832-7.411,16.593-12.086,27.452-12.086c0.069,0,0.128-0.036,0.197-0.04h302.878     c11.84,0,22.04-8.04,24.799-19.639l46.4-196.077C513.117,134.866,511.317,126.946,506.436,120.827z M363.124,440.941h0.354     c0.024,0,0.044-0.014,0.067-0.014c17.352,0.041,31.46,14.17,31.46,31.531c0,17.39-14.148,31.539-31.535,31.539     c-17.39,0-31.539-14.148-31.539-31.539C331.933,455.189,345.895,441.13,363.124,440.941z M174.728,440.941h0.694     c17.225,0.188,31.188,14.248,31.188,31.517c0,17.39-14.148,31.539-31.535,31.539c-17.39,0-31.539-14.148-31.539-31.539     C143.537,455.189,157.5,441.13,174.728,440.941z M237.303,182.677c0.345,22.253,3.548,43.226,8.976,61.772     c-10.913,6.161-21.049,13.847-30.194,22.925c-20.225-22.657-32.821-52.237-33.784-84.697H237.303z M311.558,311.804     c-23.609-2.525-44.136-27.244-55.868-63.312c17.152-8.635,36.101-13.431,55.868-14.006V311.804z M319.558,234.487     c19.768,0.574,38.719,5.371,55.872,14.005c-11.732,36.069-32.261,60.788-55.872,63.313V234.487z M319.558,226.487v-43.81h66.254     c-0.327,20.89-3.19,40.585-8.038,58.013C359.854,231.897,340.116,227.05,319.558,226.487z M319.558,174.677v-43.814     c20.56-0.563,40.296-5.413,58.213-14.208c4.85,17.43,7.714,37.127,8.041,58.021L319.558,174.677L319.558,174.677z      M319.558,122.864V45.55c23.611,2.525,44.139,27.244,55.872,63.312C358.278,117.494,339.327,122.289,319.558,122.864z      M346.601,49.006c24.197,5.794,45.86,18.172,62.947,35.167c-8.258,8.219-17.383,15.221-27.185,20.918     C373.963,80.366,361.476,60.642,346.601,49.006z M311.558,45.55v77.313c-19.767-0.574-38.715-5.374-55.866-14.008     C267.425,72.791,287.951,48.076,311.558,45.55z M248.758,105.086c-9.803-5.697-18.927-12.699-27.185-20.919     c17.087-16.993,38.747-29.369,62.942-35.162C269.643,60.642,257.157,80.364,248.758,105.086z M311.558,130.864v43.814h-66.25     c0.327-20.89,3.19-40.585,8.038-58.014C271.264,125.455,291.001,130.301,311.558,130.864z M311.558,182.677v43.81     c-20.558,0.563-40.292,5.417-58.209,14.214c-4.85-17.43-7.714-37.129-8.041-58.023h66.25V182.677z M248.747,252.268     c8.393,24.72,20.879,44.43,35.741,56.074c-24.185-5.796-45.838-18.17-62.919-35.159     C229.826,264.965,238.948,257.965,248.747,252.268z M382.364,252.263c9.803,5.697,18.927,12.698,27.185,20.918     c-17.093,17.001-38.763,29.382-62.97,35.172C361.462,296.721,373.96,276.998,382.364,252.263z M415.042,267.362     c-9.146-9.077-19.281-16.767-30.197-22.927c5.429-18.539,8.626-39.51,8.972-61.758h54.997     C447.851,215.132,435.259,244.706,415.042,267.362z M393.816,174.677c-0.345-22.252-3.542-43.23-8.973-61.772     c10.913-6.159,21.046-13.845,30.191-22.921c20.222,22.657,32.817,52.235,33.78,84.693L393.816,174.677L393.816,174.677z      M216.076,89.991c9.146,9.078,19.281,16.767,30.197,22.927c-5.429,18.539-8.624,39.511-8.97,61.759h-55.001     C183.265,142.223,195.857,112.647,216.076,89.991z M503.516,140.706l-46.399,196.037c-1.88,7.96-8.88,13.479-17,13.479H137.002     c-10.917,0-21.234,3.839-29.433,10.874l40.436-241.95h39.387c-8.444,18.106-13.191,38.27-13.191,59.531     c0,77.944,63.413,141.357,141.357,141.357s141.357-63.413,141.357-141.357c0-21.261-4.747-41.425-13.191-59.531h42.792     c5.36,0,10.32,2.44,13.68,6.64C503.516,129.987,504.756,135.426,503.516,140.706z" style="fill:#333333;"/>
</g>
<g>
<path d="M49.999,350.198H4c-2.211,0-4-1.789-4-4s1.789-4,4-4h45.999c2.211,0,4,1.789,4,4     S52.21,350.198,49.999,350.198z" style="fill:#333333;"/>
</g>
<g>
<path d="M64.64,310.64H4c-2.211,0-4-1.789-4-4s1.789-4,4-4h60.64c2.211,0,4,1.789,4,4     S66.851,310.64,64.64,310.64z" style="fill:#333333;"/>
</g>
<g>
<path d="M79.237,271.082H4c-2.211,0-4-1.789-4-4s1.789-4,4-4h75.237c2.211,0,4,1.789,4,4     S81.448,271.082,79.237,271.082z" style="fill:#333333;"/>
</g>
<g>
<path d="M93.838,231.52H4c-2.211,0-4-1.789-4-4s1.789-4,4-4h89.839c2.211,0,4,1.789,4,4     S96.049,231.52,93.838,231.52z" style="fill:#333333;"/>
</g>
</g>
</g>
</svg>